<svg width="40" height="28" viewBox="0 0 40 28" fill="none" xmlns="http://www.w3.org/2000/svg">
<rect width="39.6667" height="28" rx="4.66667" fill="#5A31F4"/>
<path d="M22.4817 12.8024C22.4817 14.5479 21.258 15.7939 19.5479 15.7939H17.9368C17.9191 15.7939 17.9014 15.7974 17.885 15.8042C17.8686 15.811 17.8537 15.821 17.8411 15.8336C17.8286 15.8462 17.8187 15.8612 17.8119 15.8777C17.8052 15.8941 17.8017 15.9117 17.8018 15.9295V18.2236C17.8018 18.2595 17.7876 18.2939 17.7623 18.3193C17.737 18.3447 17.7027 18.3591 17.6668 18.3593H16.5394C16.5126 18.3591 16.4865 18.3511 16.4642 18.3362C16.4419 18.3213 16.4246 18.3001 16.4142 18.2754C16.4074 18.2592 16.4039 18.2418 16.4038 18.2242V9.94599C16.4037 9.9282 16.4071 9.91057 16.4138 9.89412C16.4206 9.87766 16.4305 9.8627 16.4431 9.85009C16.4556 9.83748 16.4705 9.82748 16.487 9.82065C16.5034 9.81383 16.521 9.81031 16.5388 9.81031H19.5551C21.258 9.80835 22.4817 11.0543 22.4817 12.8024ZM21.0758 12.8024C21.0758 11.7989 20.3915 11.0655 19.4634 11.0655H17.9368C17.9191 11.0655 17.9014 11.069 17.885 11.0758C17.8686 11.0827 17.8537 11.0927 17.8411 11.1053C17.8286 11.1179 17.8187 11.1328 17.8119 11.1493C17.8052 11.1657 17.8017 11.1834 17.8018 11.2012V14.3958C17.8018 14.4316 17.816 14.466 17.8414 14.4913C17.8667 14.5166 17.901 14.5308 17.9368 14.5308H19.4634C20.3915 14.5374 21.0758 13.8033 21.0758 12.8024ZM22.816 16.7711C22.8043 16.5034 22.8597 16.2371 22.9771 15.9962C23.0945 15.7554 23.2703 15.5477 23.4884 15.3921C23.9283 15.0611 24.6158 14.89 25.6252 14.8546L26.7001 14.8166V14.4994C26.7001 13.8636 26.2741 13.5948 25.5898 13.5948C24.9055 13.5948 24.4716 13.8374 24.372 14.2339C24.3639 14.2618 24.3467 14.2862 24.3232 14.3033C24.2997 14.3204 24.2712 14.3292 24.2422 14.3283H23.1804C23.1608 14.3288 23.1414 14.325 23.1235 14.3172C23.1056 14.3094 23.0896 14.2977 23.0767 14.283C23.0638 14.2683 23.0543 14.2509 23.0489 14.2321C23.0435 14.2133 23.0423 14.1936 23.0454 14.1743C23.2027 13.2344 23.9846 12.5199 25.6383 12.5199C27.3975 12.5199 28.0326 13.3392 28.0326 14.9031V18.2236C28.0323 18.2598 28.0176 18.2944 27.9918 18.3198C27.966 18.3453 27.9312 18.3594 27.895 18.3593H26.8247C26.7888 18.3592 26.7545 18.3451 26.729 18.3199C26.7164 18.3074 26.7065 18.2924 26.6998 18.276C26.693 18.2596 26.6896 18.242 26.6896 18.2242V17.9758C26.69 17.9553 26.6842 17.9351 26.6729 17.918C26.6616 17.9009 26.6454 17.8875 26.6263 17.8798C26.6073 17.8721 26.5864 17.8703 26.5663 17.8747C26.5463 17.8791 26.528 17.8894 26.514 17.9044C26.1928 18.2537 25.6744 18.5061 24.8439 18.5061C23.6222 18.5061 22.816 17.8703 22.816 16.7711ZM26.7001 16.0514V15.7939L25.308 15.8673C24.5745 15.9046 24.1478 16.2094 24.1478 16.7226C24.1478 17.1867 24.5391 17.4436 25.2228 17.4436C26.1515 17.4436 26.7001 16.9422 26.7001 16.0514ZM29.1076 20.8683V19.9061C29.1078 19.8859 29.1124 19.8661 29.1212 19.8479C29.1299 19.8297 29.1425 19.8136 29.1582 19.8009C29.1738 19.7881 29.1921 19.779 29.2116 19.774C29.2312 19.7691 29.2516 19.7686 29.2714 19.7724C29.4353 19.8032 29.6024 19.8189 29.7696 19.8196C30.0569 19.8336 30.3406 19.7507 30.5753 19.5844C30.81 19.418 30.9821 19.1777 31.0641 18.902L31.1335 18.6804C31.1436 18.6507 31.1436 18.6184 31.1335 18.5887L28.9031 12.8601C28.895 12.8393 28.8921 12.8169 28.8946 12.7948C28.8971 12.7726 28.905 12.7514 28.9175 12.733C28.93 12.7146 28.9468 12.6994 28.9664 12.6889C28.9861 12.6784 29.0079 12.6728 29.0302 12.6726H30.1117C30.1393 12.6729 30.1662 12.6815 30.1889 12.6973C30.2116 12.7131 30.229 12.7353 30.2389 12.7611L31.7536 16.8013C31.7631 16.8281 31.7807 16.8514 31.8039 16.8678C31.8271 16.8842 31.8549 16.8931 31.8834 16.8931C31.9118 16.8931 31.9396 16.8842 31.9629 16.8678C31.9861 16.8514 32.0037 16.8281 32.0132 16.8013L33.3286 12.7723C33.3377 12.7447 33.3553 12.7208 33.3789 12.7038C33.4024 12.6869 33.4307 12.6778 33.4597 12.6779H34.5786C34.601 12.678 34.623 12.6836 34.6428 12.6941C34.6626 12.7046 34.6796 12.7197 34.6923 12.7382C34.705 12.7567 34.713 12.7779 34.7157 12.8002C34.7184 12.8225 34.7156 12.845 34.7077 12.866L32.3219 19.2277C31.7726 20.7064 30.8307 21.0846 29.7938 21.0846C29.5972 21.0898 29.4006 21.0662 29.2105 21.0145C29.1789 21.0061 29.1512 20.9869 29.1324 20.9601C29.1136 20.9334 29.1048 20.9009 29.1076 20.8683ZM9.15914 9.33315C7.73819 9.32303 6.36739 9.85783 5.32872 10.8276C5.2843 10.8682 5.25661 10.924 5.25104 10.984C5.24547 11.0439 5.26241 11.1038 5.29857 11.152L5.94156 12.0303C5.96241 12.0595 5.98941 12.0839 6.02066 12.1015C6.05192 12.1192 6.08667 12.1299 6.12247 12.1327C6.15827 12.1355 6.19425 12.1304 6.22788 12.1178C6.26151 12.1052 6.29198 12.0854 6.31713 12.0598C6.69061 11.6864 7.13476 11.3912 7.62364 11.1915C8.11251 10.9917 8.63629 10.8914 9.16438 10.8964C11.3693 10.8964 12.5209 12.556 12.5209 14.1946C12.5209 15.9761 11.311 17.2293 9.57207 17.2542C8.22841 17.2542 7.21575 16.3634 7.21575 15.1869C7.21715 14.8897 7.28448 14.5965 7.4129 14.3284C7.54132 14.0604 7.72762 13.8241 7.95836 13.6368C8.00714 13.596 8.03798 13.5378 8.04423 13.4745C8.05048 13.4113 8.03165 13.3481 7.99179 13.2986L7.31603 12.4452C7.29559 12.4194 7.27019 12.3979 7.24133 12.3821C7.21247 12.3663 7.18072 12.3564 7.14798 12.353C7.11523 12.3497 7.08214 12.3529 7.05067 12.3625C7.01919 12.3722 6.98996 12.388 6.96471 12.4091C6.54969 12.7435 6.21479 13.1665 5.98455 13.6472C5.75431 14.1279 5.63459 14.654 5.63416 15.1869C5.63416 17.2122 7.35536 18.801 9.56027 18.8141H9.58976C12.2076 18.7801 14.1005 16.8413 14.1005 14.1913C14.1005 11.8383 12.3675 9.33315 9.15979 9.33315H9.15914Z" fill="white"/>
</svg>
