<svg width="63" height="46" fill="none" xmlns="http://www.w3.org/2000/svg"><path d="M11.38.25c11.074 0 20.976 7.31 23.487 17.809l.001.005c.089.335.167.677.226 1.018v.001c.06.34.12.687.169 1.032l.011.083.004.004c.064.446.118.89.153 1.328l.029.452c.03.653.03 1.306.01 1.96v.008c0 .199-.01.387-.028.565-.03.216-.043.448-.061.641v.003c-.01.121-.02.233-.038.353v.003l-.03.204-.03.206a20.24 20.24 0 01-.544 2.516v.005a8.675 8.675 0 01-.154.53 70.2 70.2 0 00-.13.366c-.041.113-.08.227-.123.344l-.015.03-.007.015-.002.005-.001.001v.001l.443.23 5.38-10.01c2.636-4.917 7.81-7.988 13.46-7.988h8.662L44.61 44.85H26.77l6.091-11.342.198-.368H18.285a15.56 15.56 0 00.954-4.177c.639-6.815-2.658-15.005-9.844-22.071-.284-.294-.588-.577-.885-.855a37.877 37.877 0 00-1.87-1.66l-.002-.001-.992-.802A48.164 48.164 0 004.099 2.39l-.003-.002-.812-.575a33.553 33.553 0 00-.417-.285l-.422-.277a56.283 56.283 0 00-1.554-1H11.38z" stroke="#1D1C1A" stroke-width=".5"/></svg>